M48
; DRILL file KiCad 10.0.1 date 2026-08-13T17:24:20
; FORMAT={-:-/ absolute / metric / decimal}
; #@! TF.CreationDate,2026-08-13T17:24:20-04:00
; #@! TF.GenerationSoftware,Kicad,Pcbnew,10.0.1
; #@! TF.FileFunction,NonPlated,1,2,NPTH
FMAT,2
METRIC
; #@! TA.AperFunction,NonPlated,NPTH,ComponentDrill
T1C1.700
; #@! TA.AperFunction,NonPlated,NPTH,ComponentDrill
T2C4.000
%
G90
G05
T1
X123.175Y-110.543
X123.175Y-129.593
X133.335Y-110.543
X133.335Y-129.593
X142.225Y-110.543
X142.225Y-129.593
X152.385Y-110.543
X152.385Y-129.593
X161.275Y-110.543
X161.275Y-129.593
X171.435Y-110.543
X171.435Y-129.593
X180.325Y-110.543
X180.325Y-129.593
X190.485Y-110.543
X190.485Y-129.593
T2
X128.255Y-110.543
X128.255Y-129.593
X147.305Y-110.543
X147.305Y-129.593
X166.355Y-110.543
X166.355Y-129.593
X185.405Y-110.543
X185.405Y-129.593
M30
