M48
; DRILL file KiCad 10.0.1 date 2026-08-12T16:46:20
; FORMAT={-:-/ absolute / metric / decimal}
; #@! TF.CreationDate,2026-08-12T16:46:20-04:00
; #@! TF.GenerationSoftware,Kicad,Pcbnew,10.0.1
; #@! TF.FileFunction,NonPlated,1,2,NPTH
FMAT,2
METRIC
; #@! TA.AperFunction,NonPlated,NPTH,ComponentDrill
T1C1.700
; #@! TA.AperFunction,NonPlated,NPTH,ComponentDrill
T2C4.000
%
G90
G05
T1
X123.19Y-114.3
X123.19Y-133.35
X133.35Y-114.3
X133.35Y-133.35
X142.24Y-114.3
X142.24Y-133.35
X152.4Y-114.3
X152.4Y-133.35
X161.29Y-114.3
X161.29Y-133.35
X171.45Y-114.3
X171.45Y-133.35
X180.34Y-114.3
X180.34Y-133.35
X190.5Y-114.3
X190.5Y-133.35
T2
X128.27Y-114.3
X128.27Y-133.35
X147.32Y-114.3
X147.32Y-133.35
X166.37Y-114.3
X166.37Y-133.35
X185.42Y-114.3
X185.42Y-133.35
M30
