M48
; DRILL file KiCad 10.0.1 date 2026-08-13T17:24:20
; FORMAT={-:-/ absolute / metric / decimal}
; #@! TF.CreationDate,2026-08-13T17:24:20-04:00
; #@! TF.GenerationSoftware,Kicad,Pcbnew,10.0.1
; #@! TF.FileFunction,Plated,1,2,PTH
FMAT,2
METRIC
; #@! TA.AperFunction,Plated,PTH,ComponentDrill
T1C1.000
; #@! TA.AperFunction,Plated,PTH,ComponentDrill
T2C1.500
%
G90
G05
T1
X149.975Y-78.404
X149.975Y-80.944
X149.975Y-83.484
X149.975Y-86.024
X149.975Y-88.564
X149.975Y-91.104
X149.975Y-93.644
X165.225Y-78.404
X165.225Y-80.944
X165.225Y-83.484
X165.225Y-86.024
X165.225Y-88.564
X165.225Y-91.104
X165.225Y-93.644
T2
X124.445Y-108.003
X124.445Y-127.053
X130.795Y-105.463
X130.795Y-124.513
X143.495Y-108.003
X143.495Y-127.053
X149.845Y-105.463
X149.845Y-124.513
X162.545Y-108.003
X162.545Y-127.053
X168.895Y-105.463
X168.895Y-124.513
X181.595Y-108.003
X181.595Y-127.053
X187.945Y-105.463
X187.945Y-124.513
M30
