M48
; DRILL file KiCad 10.0.1 date 2026-08-12T16:46:20
; FORMAT={-:-/ absolute / metric / decimal}
; #@! TF.CreationDate,2026-08-12T16:46:20-04:00
; #@! TF.GenerationSoftware,Kicad,Pcbnew,10.0.1
; #@! TF.FileFunction,Plated,1,2,PTH
FMAT,2
METRIC
; #@! TA.AperFunction,Plated,PTH,ComponentDrill
T1C1.000
; #@! TA.AperFunction,Plated,PTH,ComponentDrill
T2C1.500
%
G90
G05
T1
X149.975Y-78.404
X149.975Y-80.944
X149.975Y-83.484
X149.975Y-86.024
X149.975Y-88.564
X149.975Y-91.104
X149.975Y-93.644
X165.225Y-78.404
X165.225Y-80.944
X165.225Y-83.484
X165.225Y-86.024
X165.225Y-88.564
X165.225Y-91.104
X165.225Y-93.644
T2
X124.46Y-111.76
X124.46Y-130.81
X130.81Y-109.22
X130.81Y-128.27
X143.51Y-111.76
X143.51Y-130.81
X149.86Y-109.22
X149.86Y-128.27
X162.56Y-111.76
X162.56Y-130.81
X168.91Y-109.22
X168.91Y-128.27
X181.61Y-111.76
X181.61Y-130.81
X187.96Y-109.22
X187.96Y-128.27
M30
